<?xml version="1.0" encoding="utf-8"?>
<!-- Generator: Adobe Illustrator 27.6.1, SVG Export Plug-In . SVG Version: 6.00 Build 0)  -->
<svg version="1.1" id="Layer_1" xmlns="http://www.w3.org/2000/svg" xmlns:xlink="http://www.w3.org/1999/xlink" x="0px" y="0px"
	 viewBox="0 0 430 299" style="enable-background:new 0 0 430 299;" xml:space="preserve">
<style type="text/css">
	.st0{fill:#5346F5;}
	.st1{fill:#F73E33;}
	.st2{fill:#46F5AC;}
	.st3{fill:#FFC416;}
	.st4{fill:#F78533;}
	.st5{fill:#F5BB40;stroke:#7E3813;stroke-width:5;stroke-miterlimit:10;}
	.st6{opacity:0.7;fill:#F0DD98;enable-background:new    ;}
	.st7{fill:none;stroke:#7E3813;stroke-width:5;stroke-miterlimit:10;}
</style>
<path class="st0" d="M331.7,114.7l12.3,3.2l-13.2,24.5l-12.9-3.3L331.7,114.7z"/>
<path class="st0" d="M83.6,146l10-4l1.8,19.9L85,166L83.6,146z"/>
<path class="st1" d="M95.3,218H108l-6.7,27H88L95.3,218z"/>
<path class="st2" d="M346.5,178H335l6,27h12L346.5,178z"/>
<path class="st1" d="M294.5,249h9.5l-5,13h-10L294.5,249z"/>
<path class="st3" d="M194.2,82H184l5.3,16H200L194.2,82z"/>
<g>
	<ellipse class="st4" cx="215" cy="172" rx="95" ry="58"/>
</g>
<path class="st5" d="M262.9,166.3c0-10.4,8.3-18.8,18.7-19v-29.5c0-4.5-3.7-8.2-8.2-8.2H136c-4.5,0-8.2,3.7-8.2,8.2v29.5
	c0.1,0,0.2,0,0.3,0c10.5,0,19.1,8.5,19.1,19c0,10.5-8.5,19-19.1,19c-0.1,0-0.2,0-0.3,0v29.5c0,4.5,3.7,8.2,8.2,8.2h137.4
	c4.5,0,8.2-3.7,8.2-8.2v-29.5C271.3,185.1,262.9,176.7,262.9,166.3L262.9,166.3z"/>
<path class="st5" d="M284.8,156.2c-2.1-6.8,2.1-14.2,9.3-16.4l-11.2-36.1c-1.6-5.1-7.3-7.9-12.7-6.2l-145.8,45.1
	c-5.4,1.7-8.6,7.2-7,12.3l11.2,36.1c7.3-2.2,14.9,1.5,17,8.3c2.1,6.8-2.1,14.2-9.3,16.4l11.2,36.1c1.6,5.1,7.3,7.9,12.7,6.2
	L306,212.8c5.4-1.7,8.6-7.2,7-12.3l-11.2-36.1C294.5,166.7,286.9,163,284.8,156.2L284.8,156.2z"/>
<path class="st6" d="M254.7,225.9c-19.2,5.8-38.4,11.5-57.6,17.3c-2.4-39.6-4.8-79.3-7.2-118.9c19.3-5.9,38.7-11.9,58-17.8
	C250.3,146.3,252.5,186.1,254.7,225.9z"/>
<path class="st7" d="M247.6,118.1L154.3,147c-3.4,1-5.2,4.6-4.2,8l24,77.1c1,3.4,4.6,5.2,8,4.2l93.2-28.9c3.4-1,5.2-4.6,4.2-8
	l-24-77.1C254.5,118.9,250.9,117.1,247.6,118.1z"/>
<path class="st6" d="M191.5,245c-2.1,0.7-4.2,1.3-6.3,2c-2.8-39.5-5.6-79-8.5-118.5c2.1-0.6,4.1-1.2,6.2-1.8
	C185.8,166.1,188.6,205.5,191.5,245z"/>
<path class="st1" d="M223.3,161.2l15.9-2.2c1.5-0.2,2.5,1.4,1.8,2.6l-7.9,14c-0.3,0.5-0.3,1.1-0.1,1.7l7.1,14.4
	c0.6,1.3-0.5,2.8-2,2.5l-15.8-3.2c-0.6-0.1-1.2,0.1-1.6,0.5l-11.6,11.2c-1.1,1-2.8,0.4-3-1.1l-1.8-16c-0.1-0.6-0.4-1.1-0.9-1.4
	l-14.2-7.5c-1.3-0.7-1.3-2.6,0.1-3.2l14.7-6.7c0.5-0.2,0.9-0.7,1-1.3l2.8-15.8c0.3-1.5,2.1-2,3.1-0.9l10.9,11.8
	C222.2,161.1,222.7,161.3,223.3,161.2L223.3,161.2z"/>
<g>
	<path d="M60.9,43.7h9.8l3.5,4.5l6,6.8l7.8,9.5H76.9L71.4,58l-3.7-5.4L60.9,43.7z M88,37.7c0,5.2-1,9.6-3,13.1
		c-2,3.5-4.7,6.2-8.2,8.1c-3.4,1.8-7.2,2.7-11.5,2.7c-4.2,0-8.1-0.9-11.5-2.8c-3.4-1.8-6.1-4.5-8.1-8.1c-2-3.6-3-7.9-3-13.1
		c0-5.2,1-9.5,3-13.1c2-3.6,4.7-6.2,8.1-8.1c3.4-1.8,7.3-2.8,11.5-2.8c4.2,0,8,0.9,11.5,2.8c3.4,1.8,6.1,4.5,8.2,8.1
		C87,28.2,88,32.5,88,37.7z M75,37.7c0-2.8-0.4-5.1-1.1-7c-0.7-1.9-1.8-3.4-3.2-4.4c-1.4-1-3.2-1.5-5.3-1.5c-2.1,0-3.9,0.5-5.3,1.5
		c-1.4,1-2.5,2.4-3.2,4.4c-0.7,1.9-1.1,4.3-1.1,7c0,2.8,0.4,5.1,1.1,7.1c0.7,1.9,1.8,3.4,3.2,4.4c1.4,1,3.2,1.5,5.3,1.5
		c2.1,0,3.8-0.5,5.3-1.5c1.4-1,2.5-2.5,3.2-4.4C74.7,42.9,75,40.5,75,37.7z M116.8,45.7V26.1h12.5V61h-11.9v-6.6H117
		c-0.8,2.2-2.1,4-4,5.2c-1.9,1.2-4.1,1.9-6.8,1.9c-2.4,0-4.6-0.6-6.4-1.7c-1.8-1.1-3.2-2.7-4.2-4.6c-1-2-1.5-4.2-1.5-6.8V26.1h12.5
		v19.6c0,1.7,0.5,3.1,1.3,4.1c0.9,1,2.1,1.5,3.7,1.5c1,0,1.9-0.2,2.7-0.7c0.8-0.5,1.4-1.1,1.8-1.9C116.6,47.9,116.8,46.9,116.8,45.7
		z M152.4,61.6c-3.7,0-6.9-0.7-9.6-2.1c-2.7-1.4-4.8-3.5-6.2-6.2c-1.4-2.7-2.2-5.9-2.2-9.7c0-3.6,0.7-6.8,2.2-9.5
		c1.5-2.7,3.5-4.8,6.2-6.3c2.7-1.5,5.8-2.2,9.4-2.2c2.6,0,5,0.4,7.2,1.2c2.1,0.8,4,2,5.5,3.6c1.5,1.5,2.7,3.4,3.5,5.6
		c0.8,2.2,1.2,4.7,1.2,7.5v2.9h-31.2v-6.9H158c0-1-0.3-1.9-0.8-2.6c-0.5-0.8-1.1-1.4-2-1.8c-0.8-0.4-1.8-0.7-2.8-0.7
		c-1,0-1.9,0.2-2.8,0.7c-0.8,0.4-1.5,1-2,1.8c-0.5,0.8-0.8,1.6-0.8,2.7V47c0,1.1,0.2,2.1,0.7,3c0.5,0.9,1.1,1.6,2,2.1
		s1.9,0.8,3.2,0.8c0.9,0,1.7-0.1,2.4-0.4c0.7-0.2,1.3-0.6,1.9-1c0.5-0.5,0.9-1,1.1-1.7h11.5c-0.4,2.4-1.3,4.5-2.8,6.3
		c-1.5,1.8-3.4,3.2-5.8,4.1C158.5,61.2,155.6,61.6,152.4,61.6z M206.5,37.5H195c-0.1-0.7-0.3-1.3-0.8-1.8c-0.4-0.5-1-0.9-1.7-1.2
		c-0.7-0.3-1.4-0.4-2.3-0.4c-1.1,0-2,0.2-2.8,0.6c-0.8,0.4-1.2,1-1.1,1.7c0,0.5,0.2,1,0.7,1.4c0.5,0.4,1.4,0.8,2.7,1l7.1,1.3
		c3.6,0.7,6.2,1.8,8,3.3c1.8,1.5,2.6,3.6,2.7,6.2c0,2.5-0.8,4.6-2.2,6.5c-1.5,1.8-3.4,3.2-6,4.2c-2.5,1-5.4,1.5-8.6,1.5
		c-5.3,0-9.5-1.1-12.5-3.3c-3-2.2-4.7-5.1-5-8.6h12.5c0.2,1.1,0.7,2,1.6,2.6c0.9,0.6,2.1,0.9,3.5,0.9c1.2,0,2.1-0.2,2.8-0.6
		c0.8-0.4,1.1-1,1.2-1.7c0-0.7-0.3-1.2-1-1.6c-0.6-0.4-1.6-0.7-3-1l-6.2-1.1c-3.6-0.6-6.2-1.8-8-3.5c-1.8-1.7-2.7-4-2.6-6.7
		c0-2.4,0.6-4.5,1.9-6.2c1.3-1.7,3.2-3,5.6-3.9c2.4-0.9,5.3-1.3,8.6-1.3c5,0,9,1,11.9,3.1C204.8,30.9,206.4,33.8,206.5,37.5z
		 M233.1,26.1v9.1h-23v-9.1H233.1z M214.5,17.7h12.5v32c0,0.5,0.1,0.9,0.2,1.2c0.2,0.3,0.4,0.6,0.8,0.7c0.3,0.2,0.8,0.2,1.3,0.2
		c0.4,0,0.8,0,1.3-0.1c0.5-0.1,0.9-0.2,1.1-0.2l1.8,8.8c-0.6,0.2-1.4,0.4-2.4,0.6c-1,0.2-2.3,0.4-3.7,0.5c-2.9,0.2-5.3-0.1-7.2-0.9
		c-2-0.8-3.4-1.9-4.4-3.6c-1-1.6-1.5-3.7-1.4-6.1V17.7z M250.8,61V14.5h32.7v10.2h-20.1v8h18.1v10.2h-18.1V61H250.8z M302.5,61.6
		c-3.7,0-6.9-0.7-9.6-2.1c-2.7-1.4-4.8-3.5-6.2-6.2c-1.4-2.7-2.2-5.9-2.2-9.7c0-3.6,0.7-6.8,2.2-9.5c1.5-2.7,3.5-4.8,6.2-6.3
		c2.7-1.5,5.8-2.2,9.4-2.2c2.6,0,5,0.4,7.2,1.2c2.1,0.8,4,2,5.5,3.6c1.5,1.5,2.7,3.4,3.5,5.6c0.8,2.2,1.2,4.7,1.2,7.5v2.9h-31.2
		v-6.9H308c0-1-0.3-1.9-0.8-2.6c-0.5-0.8-1.1-1.4-2-1.8c-0.8-0.4-1.8-0.7-2.8-0.7c-1,0-1.9,0.2-2.8,0.7c-0.8,0.4-1.5,1-2,1.8
		c-0.5,0.8-0.8,1.6-0.8,2.7V47c0,1.1,0.2,2.1,0.7,3c0.5,0.9,1.1,1.6,2,2.1c0.9,0.5,1.9,0.8,3.2,0.8c0.9,0,1.7-0.1,2.4-0.4
		c0.7-0.2,1.3-0.6,1.9-1c0.5-0.5,0.9-1,1.1-1.7h11.5c-0.4,2.4-1.3,4.5-2.8,6.3c-1.5,1.8-3.4,3.2-5.8,4.1
		C308.5,61.2,305.7,61.6,302.5,61.6z M356.6,37.5H345c-0.1-0.7-0.3-1.3-0.8-1.8c-0.4-0.5-1-0.9-1.7-1.2c-0.7-0.3-1.4-0.4-2.3-0.4
		c-1.1,0-2,0.2-2.8,0.6c-0.8,0.4-1.2,1-1.1,1.7c0,0.5,0.2,1,0.7,1.4c0.5,0.4,1.4,0.8,2.7,1l7.1,1.3c3.6,0.7,6.2,1.8,8,3.3
		c1.8,1.5,2.6,3.6,2.7,6.2c0,2.5-0.8,4.6-2.2,6.5c-1.5,1.8-3.4,3.2-6,4.2c-2.5,1-5.4,1.5-8.6,1.5c-5.3,0-9.5-1.1-12.5-3.3
		c-3-2.2-4.7-5.1-5-8.6h12.5c0.2,1.1,0.7,2,1.6,2.6c0.9,0.6,2.1,0.9,3.5,0.9c1.2,0,2.1-0.2,2.8-0.6c0.8-0.4,1.1-1,1.2-1.7
		c0-0.7-0.3-1.2-1-1.6c-0.6-0.4-1.6-0.7-3-1l-6.2-1.1c-3.6-0.6-6.2-1.8-8-3.5c-1.8-1.7-2.7-4-2.6-6.7c0-2.4,0.6-4.5,1.9-6.2
		c1.3-1.7,3.2-3,5.6-3.9c2.4-0.9,5.3-1.3,8.6-1.3c5,0,9,1,11.9,3.1C354.9,30.9,356.4,33.8,356.6,37.5z M383.1,26.1v9.1h-23v-9.1
		H383.1z M364.6,17.7h12.5v32c0,0.5,0.1,0.9,0.2,1.2c0.2,0.3,0.4,0.6,0.8,0.7c0.3,0.2,0.8,0.2,1.3,0.2c0.4,0,0.8,0,1.3-0.1
		c0.5-0.1,0.9-0.2,1.1-0.2l1.8,8.8c-0.6,0.2-1.4,0.4-2.4,0.6c-1,0.2-2.3,0.4-3.7,0.5c-2.9,0.2-5.3-0.1-7.2-0.9
		c-2-0.8-3.4-1.9-4.4-3.6c-1-1.6-1.5-3.7-1.4-6.1V17.7z"/>
</g>
<text transform="matrix(1 0 0 1 -324 -210)" style="font-family:'MyriadPro-Regular'; font-size:12px;">Lorem ipsum</text>
</svg>
